<?xml version="1.0" encoding="UTF-8" standalone="no"?>
<svg
   xmlns:dc="http://purl.org/dc/elements/1.1/"
   xmlns:cc="http://creativecommons.org/ns#"
   xmlns:rdf="http://www.w3.org/1999/02/22-rdf-syntax-ns#"
   xmlns:svg="http://www.w3.org/2000/svg"
   xmlns="http://www.w3.org/2000/svg"
   xmlns:sodipodi="http://sodipodi.sourceforge.net/DTD/sodipodi-0.dtd"
   xmlns:inkscape="http://www.inkscape.org/namespaces/inkscape"
   version="1.1"
   width="24"
   height="24"
   viewBox="0 0 24 24"
   id="svg4"
   sodipodi:docname="ico.svg"
   inkscape:version="0.92.5 (2060ec1f9f, 2020-04-08)">
  <metadata
     id="metadata10">
    <rdf:RDF>
      <cc:Work
         rdf:about="">
        <dc:format>image/svg+xml</dc:format>
        <dc:type
           rdf:resource="http://purl.org/dc/dcmitype/StillImage" />
      </cc:Work>
    </rdf:RDF>
  </metadata>
  <defs
     id="defs8" />
  <sodipodi:namedview
     pagecolor="#ffffff"
     bordercolor="#666666"
     borderopacity="1"
     objecttolerance="10"
     gridtolerance="10"
     guidetolerance="10"
     inkscape:pageopacity="0"
     inkscape:pageshadow="2"
     inkscape:window-width="1600"
     inkscape:window-height="784"
     id="namedview6"
     showgrid="false"
     inkscape:zoom="9.8333333"
     inkscape:cx="-11.59322"
     inkscape:cy="11.59322"
     inkscape:window-x="0"
     inkscape:window-y="151"
     inkscape:window-maximized="1"
     inkscape:current-layer="svg4" />
  <path
     d="M12 1L21 5V11C21 16.55 17.16 21.74 12 23C6.84 21.74 3 16.55 3 11V5L12 1M12 3.18L5 6.3V11.22C5 15.54 8.25 20 12 21C15.75 20 19 15.54 19 11.22V6.3L12 3.18M16 14V15.5L16 15.59C15.96 15.81 15.78 15.96 15.53 16L15.43 16H8.57L8.47 16C8.22 15.96 8.04 15.81 8 15.59L8 15.5V14H16M17 8L16 13H8L7 8L7 8L9.67 10.67L12 8.34L14.33 10.67L17 8L17 8Z"
     id="path2"
     style="fill:#f0dc51;fill-opacity:1"
     inkscape:export-xdpi="150"
     inkscape:export-ydpi="150" />
</svg>
